<svg xmlns="http://www.w3.org/2000/svg" viewBox="0 0 700 380" width="100%" max-width="700">
<rect width="700" height="380" fill="white" rx="8"/>
<text x="350" y="20" text-anchor="middle" font-size="14" font-weight="bold" fill="#333">Baseline vs Voting — Key Metrics</text>
<rect x="166" y="78.27600000000001" width="28" height="241.724" fill="#4a9eff" rx="3" opacity="0.85"/>
<rect x="200" y="100.67599999999999" width="28" height="219.324" fill="#4caf50" rx="3" opacity="0.85"/>
<text x="180" y="73.27600000000001" text-anchor="middle" font-size="9" fill="#4a9eff">86.3</text>
<text x="214" y="95.67599999999999" text-anchor="middle" font-size="9" fill="#4caf50">78.3</text>
<text x="197" y="342" text-anchor="middle" font-size="9" fill="#333">Vocab Size</text>
<text x="180" y="356" text-anchor="middle" font-size="7" fill="#4a9eff">B</text>
<text x="214" y="356" text-anchor="middle" font-size="7" fill="#4caf50">V</text>
<rect x="234" y="108.50666666666669" width="28" height="211.4933333333333" fill="#4a9eff" rx="3" opacity="0.85"/>
<rect x="268" y="114.66666666666669" width="28" height="205.33333333333331" fill="#4caf50" rx="3" opacity="0.85"/>
<text x="248" y="103.50666666666669" text-anchor="middle" font-size="9" fill="#4a9eff">11.3</text>
<text x="282" y="109.66666666666669" text-anchor="middle" font-size="9" fill="#4caf50">11.0</text>
<text x="265" y="342" text-anchor="middle" font-size="9" fill="#333">Words Invented</text>
<text x="248" y="356" text-anchor="middle" font-size="7" fill="#4a9eff">B</text>
<text x="282" y="356" text-anchor="middle" font-size="7" fill="#4caf50">V</text>
<rect x="302" y="113.81818181818181" width="28" height="206.1818181818182" fill="#4a9eff" rx="3" opacity="0.85"/>
<rect x="336" y="118.90909090909088" width="28" height="201.09090909090912" fill="#4caf50" rx="3" opacity="0.85"/>
<text x="316" y="108.81818181818181" text-anchor="middle" font-size="9" fill="#4a9eff">16.2</text>
<text x="350" y="113.90909090909088" text-anchor="middle" font-size="9" fill="#4caf50">15.8</text>
<text x="333" y="342" text-anchor="middle" font-size="9" fill="#333">Mean Word Lifetime</text>
<text x="316" y="356" text-anchor="middle" font-size="7" fill="#4a9eff">B</text>
<text x="350" y="356" text-anchor="middle" font-size="7" fill="#4caf50">V</text>
<rect x="370" y="78.18181818181819" width="28" height="241.8181818181818" fill="#4a9eff" rx="3" opacity="0.85"/>
<rect x="404" y="78.18181818181819" width="28" height="241.8181818181818" fill="#4caf50" rx="3" opacity="0.85"/>
<text x="384" y="73.18181818181819" text-anchor="middle" font-size="9" fill="#4a9eff">19.0</text>
<text x="418" y="73.18181818181819" text-anchor="middle" font-size="9" fill="#4caf50">19.0</text>
<text x="401" y="342" text-anchor="middle" font-size="9" fill="#333">Max Word Lifetime</text>
<text x="384" y="356" text-anchor="middle" font-size="7" fill="#4a9eff">B</text>
<text x="418" y="356" text-anchor="middle" font-size="7" fill="#4caf50">V</text>
<rect x="438" y="64.26666666666668" width="28" height="255.73333333333332" fill="#4a9eff" rx="3" opacity="0.85"/>
<rect x="472" y="66.13333333333335" width="28" height="253.86666666666665" fill="#4caf50" rx="3" opacity="0.85"/>
<text x="452" y="59.26666666666668" text-anchor="middle" font-size="9" fill="#4a9eff">137.0</text>
<text x="486" y="61.133333333333354" text-anchor="middle" font-size="9" fill="#4caf50">136.0</text>
<text x="469" y="342" text-anchor="middle" font-size="9" fill="#333">Research Findings</text>
<text x="452" y="356" text-anchor="middle" font-size="7" fill="#4a9eff">B</text>
<text x="486" y="356" text-anchor="middle" font-size="7" fill="#4caf50">V</text>
<rect x="506" y="78.96666666666667" width="28" height="241.03333333333333" fill="#4a9eff" rx="3" opacity="0.85"/>
<rect x="540" y="86.66666666666666" width="28" height="233.33333333333334" fill="#4caf50" rx="3" opacity="0.85"/>
<text x="520" y="73.96666666666667" text-anchor="middle" font-size="9" fill="#4a9eff">10.3</text>
<text x="554" y="81.66666666666666" text-anchor="middle" font-size="9" fill="#4caf50">10.0</text>
<text x="537" y="342" text-anchor="middle" font-size="9" fill="#333">Votes Cast</text>
<text x="520" y="356" text-anchor="middle" font-size="7" fill="#4a9eff">B</text>
<text x="554" y="356" text-anchor="middle" font-size="7" fill="#4caf50">V</text>
<line x1="80" y1="40" x2="80" y2="320" stroke="#ccc" stroke-width="1"/>
<line x1="80" y1="320" x2="660" y2="320" stroke="#ccc" stroke-width="1"/>
<rect x="80" y="45" width="12" height="12" fill="#4a9eff" rx="2" opacity="0.85"/>
<text x="96" y="54" font-size="10" fill="#333">Baseline</text>
<rect x="160" y="45" width="12" height="12" fill="#4caf50" rx="2" opacity="0.85"/>
<text x="176" y="54" font-size="10" fill="#333">Voting</text>
</svg>