<svg xmlns="http://www.w3.org/2000/svg" viewBox="0 0 900 620" width="100%" font-family="'Segoe UI',system-ui,sans-serif">
  <defs>
    <linearGradient id="bg" x1="0" y1="0" x2="0" y2="1"><stop offset="0%" stop-color="#0d1117"/><stop offset="100%" stop-color="#161b22"/></linearGradient>
    <filter id="glow"><feGaussianBlur stdDeviation="1" result="blur"/><feMerge><feMergeNode in="blur"/><feMergeNode in="SourceGraphic"/></feMerge></filter>
  </defs>
  <rect width="900" height="620" fill="url(#bg)" rx="8"/>
  
  <!-- Title bar -->
  <rect x="0" y="0" width="900" height="28" fill="#161b22" rx="8"/>
  <rect x="0" y="20" width="900" height="8" fill="#161b22"/>
  <text x="14" y="19" font-size="13" fill="#58a6ff" font-weight="600">🔬 Emergence Observatory — LLM Society Laboratory</text>
  
  <!-- Left column background -->
  <rect x="8" y="34" width="572" height="578" fill="none"/>
  
  <!-- Canvas / World Map -->
  <rect x="8" y="34" width="572" height="390" fill="#161b22" rx="6" stroke="#30363d" stroke-width="1"/>
  
  <!-- Grid lines -->

  <line x1="12.0" y1="40" x2="12.0" y2="418" stroke="#1c2128" stroke-width="0.5"/>
  <line x1="68.4" y1="40" x2="68.4" y2="418" stroke="#1c2128" stroke-width="0.5"/>
  <line x1="124.8" y1="40" x2="124.8" y2="418" stroke="#1c2128" stroke-width="0.5"/>
  <line x1="181.2" y1="40" x2="181.2" y2="418" stroke="#1c2128" stroke-width="0.5"/>
  <line x1="237.6" y1="40" x2="237.6" y2="418" stroke="#1c2128" stroke-width="0.5"/>
  <line x1="294.0" y1="40" x2="294.0" y2="418" stroke="#1c2128" stroke-width="0.5"/>
  <line x1="350.4" y1="40" x2="350.4" y2="418" stroke="#1c2128" stroke-width="0.5"/>
  <line x1="406.8" y1="40" x2="406.8" y2="418" stroke="#1c2128" stroke-width="0.5"/>
  <line x1="463.2" y1="40" x2="463.2" y2="418" stroke="#1c2128" stroke-width="0.5"/>
  <line x1="519.6" y1="40" x2="519.6" y2="418" stroke="#1c2128" stroke-width="0.5"/>
  <line x1="576.0" y1="40" x2="576.0" y2="418" stroke="#1c2128" stroke-width="0.5"/>
  <line x1="12" y1="40.0" x2="574" y2="40.0" stroke="#1c2128" stroke-width="0.5"/>
  <line x1="12" y1="85.5" x2="574" y2="85.5" stroke="#1c2128" stroke-width="0.5"/>
  <line x1="12" y1="131.0" x2="574" y2="131.0" stroke="#1c2128" stroke-width="0.5"/>
  <line x1="12" y1="176.5" x2="574" y2="176.5" stroke="#1c2128" stroke-width="0.5"/>
  <line x1="12" y1="222.0" x2="574" y2="222.0" stroke="#1c2128" stroke-width="0.5"/>
  <line x1="12" y1="267.5" x2="574" y2="267.5" stroke="#1c2128" stroke-width="0.5"/>
  <line x1="12" y1="313.0" x2="574" y2="313.0" stroke="#1c2128" stroke-width="0.5"/>
  <line x1="12" y1="358.5" x2="574" y2="358.5" stroke="#1c2128" stroke-width="0.5"/>
  <line x1="12" y1="404.0" x2="574" y2="404.0" stroke="#1c2128" stroke-width="0.5"/>
  <rect x="463.2" y="103.7" width="10.3" height="8.1" fill="#3fb950" opacity="0.12" rx="1"/>
  <rect x="203.8" y="176.5" width="10.3" height="8.1" fill="#3fb950" opacity="0.12" rx="1"/>
  <rect x="542.2" y="94.6" width="10.3" height="8.1" fill="#d29922" opacity="0.12" rx="1"/>
  <rect x="395.5" y="85.5" width="10.3" height="8.1" fill="#3fb950" opacity="0.12" rx="1"/>
  <rect x="34.6" y="49.1" width="10.3" height="8.1" fill="#3fb950" opacity="0.12" rx="1"/>
  <rect x="169.9" y="331.2" width="10.3" height="8.1" fill="#d29922" opacity="0.12" rx="1"/>
  <rect x="406.8" y="149.2" width="10.3" height="8.1" fill="#d29922" opacity="0.12" rx="1"/>
  <rect x="508.3" y="349.4" width="10.3" height="8.1" fill="#3fb950" opacity="0.12" rx="1"/>
  <rect x="327.8" y="376.7" width="10.3" height="8.1" fill="#3fb950" opacity="0.12" rx="1"/>
  <rect x="12.0" y="131.0" width="10.3" height="8.1" fill="#d29922" opacity="0.12" rx="1"/>
  <rect x="248.9" y="194.7" width="10.3" height="8.1" fill="#3fb950" opacity="0.12" rx="1"/>
  <rect x="553.4" y="231.1" width="10.3" height="8.1" fill="#3fb950" opacity="0.12" rx="1"/>
  <rect x="282.7" y="94.6" width="10.3" height="8.1" fill="#3fb950" opacity="0.12" rx="1"/>
  <rect x="260.2" y="385.8" width="10.3" height="8.1" fill="#3fb950" opacity="0.12" rx="1"/>
  <rect x="34.6" y="303.9" width="10.3" height="8.1" fill="#3fb950" opacity="0.12" rx="1"/>
  <rect x="282.7" y="85.5" width="10.3" height="8.1" fill="#3fb950" opacity="0.12" rx="1"/>
  <rect x="463.2" y="394.9" width="10.3" height="8.1" fill="#d29922" opacity="0.12" rx="1"/>
  <rect x="271.4" y="367.6" width="10.3" height="8.1" fill="#3fb950" opacity="0.12" rx="1"/>
  <rect x="57.1" y="58.2" width="10.3" height="8.1" fill="#d29922" opacity="0.12" rx="1"/>
  <rect x="564.7" y="203.8" width="10.3" height="8.1" fill="#d29922" opacity="0.12" rx="1"/>
  <rect x="169.9" y="94.6" width="10.3" height="8.1" fill="#3fb950" opacity="0.12" rx="1"/>
  <rect x="339.1" y="249.3" width="10.3" height="8.1" fill="#3fb950" opacity="0.12" rx="1"/>
  <rect x="260.2" y="158.3" width="10.3" height="8.1" fill="#d29922" opacity="0.12" rx="1"/>
  <rect x="508.3" y="76.4" width="10.3" height="8.1" fill="#d29922" opacity="0.12" rx="1"/>
  <rect x="124.8" y="349.4" width="10.3" height="8.1" fill="#d29922" opacity="0.12" rx="1"/>
  <rect x="124.8" y="303.9" width="10.3" height="8.1" fill="#3fb950" opacity="0.12" rx="1"/>
  <rect x="463.2" y="358.5" width="10.3" height="8.1" fill="#3fb950" opacity="0.12" rx="1"/>
  <rect x="237.6" y="67.3" width="10.3" height="8.1" fill="#3fb950" opacity="0.12" rx="1"/>
  <rect x="34.6" y="222.0" width="10.3" height="8.1" fill="#3fb950" opacity="0.12" rx="1"/>
  <rect x="57.1" y="158.3" width="10.3" height="8.1" fill="#d29922" opacity="0.12" rx="1"/>
  <line x1="107.9" y1="90.0" x2="186.8" y2="208.3" stroke="#58a6ff" stroke-width="1" opacity="0.2"/>
  <line x1="186.8" y1="208.3" x2="525.2" y2="126.4" stroke="#58a6ff" stroke-width="1" opacity="0.2"/>
  <line x1="130.4" y1="335.8" x2="51.5" y2="299.3" stroke="#58a6ff" stroke-width="1" opacity="0.2"/>
  <line x1="265.8" y1="153.8" x2="446.3" y2="363.1" stroke="#58a6ff" stroke-width="1" opacity="0.2"/>
  <line x1="468.8" y1="226.6" x2="491.4" y2="71.8" stroke="#58a6ff" stroke-width="1" opacity="0.2"/>
  <line x1="356.0" y1="181.1" x2="423.7" y2="244.8" stroke="#58a6ff" stroke-width="1" opacity="0.2"/>
  <circle cx="107.9" cy="90.0" r="7.3" fill="#58a6ff" filter="url(#glow)"/>
  <text x="111.9" y="86.0" font-size="6" fill="#58a6ff" opacity="0.8">A0</text>
  <circle cx="491.4" cy="71.8" r="7.3" fill="#3fb950" filter="url(#glow)"/>
  <circle cx="186.8" cy="208.3" r="7.3" fill="#d29922" filter="url(#glow)"/>
  <circle cx="423.7" cy="244.8" r="7.3" fill="#f85149" filter="url(#glow)"/>
  <text x="427.7" y="240.8" font-size="6" fill="#f85149" opacity="0.8">A3</text>
  <circle cx="51.5" cy="299.3" r="7.3" fill="#bc8cff" filter="url(#glow)"/>
  <circle cx="265.8" cy="153.8" r="7.3" fill="#7ee787" filter="url(#glow)"/>
  <circle cx="525.2" cy="126.4" r="7.3" fill="#ffa657" filter="url(#glow)"/>
  <text x="529.2" y="122.4" font-size="6" fill="#ffa657" opacity="0.8">A6</text>
  <circle cx="130.4" cy="335.8" r="7.3" fill="#79c0ff" filter="url(#glow)"/>
  <circle cx="356.0" cy="181.1" r="7.3" fill="#ff7b72" filter="url(#glow)"/>
  <circle cx="446.3" cy="363.1" r="7.3" fill="#a5d6ff" filter="url(#glow)"/>
  <text x="450.3" y="359.1" font-size="6" fill="#a5d6ff" opacity="0.8">A9</text>
  <circle cx="220.7" cy="272.1" r="7.3" fill="#58a6ff" filter="url(#glow)"/>
  <circle cx="85.3" cy="171.9" r="7.3" fill="#3fb950" filter="url(#glow)"/>
  <circle cx="468.8" cy="226.6" r="7.3" fill="#d29922" filter="url(#glow)"/>
  <text x="472.8" y="222.6" font-size="6" fill="#d29922" opacity="0.8">A12</text>
  <circle cx="333.5" cy="117.3" r="7.3" fill="#f85149" filter="url(#glow)"/>
  <circle cx="153.0" cy="381.2" r="7.3" fill="#bc8cff" filter="url(#glow)"/>

  <!-- Legend -->
  <rect x="440" y="42" width="130" height="54" fill="#0d1117" rx="4" opacity="0.9"/>
  <circle cx="448" cy="51" r="3" fill="#58a6ff"/><text x="455" y="54" font-size="8" fill="#8b949e">Agent</text>
  <circle cx="448" cy="64" r="3" fill="#3fb950" opacity="0.4"/><text x="455" y="67" font-size="8" fill="#8b949e">Resource</text>
  <line x1="448" y1="77" x2="456" y2="77" stroke="#58a6ff" stroke-width="1" opacity="0.3"/>
  <text x="460" y="80" font-size="8" fill="#8b949e">Conversation</text>
  <rect x="440" y="84" width="130" height="14" fill="none"/>

  <rect x="8" y="426" width="134" height="42" fill="#161b22" rx="6" stroke="#30363d" stroke-width="1"/>
  <text x="18" y="445" font-size="9" fill="#8b949e" text-transform="uppercase">Tick</text>
  <text x="18" y="461" font-size="18" font-weight="600" fill="#58a6ff">20</text>
  <rect x="148" y="426" width="134" height="42" fill="#161b22" rx="6" stroke="#30363d" stroke-width="1"/>
  <text x="158" y="445" font-size="9" fill="#8b949e" text-transform="uppercase">Agents</text>
  <text x="158" y="461" font-size="18" font-weight="600" fill="#3fb950">15</text>
  <rect x="288" y="426" width="134" height="42" fill="#161b22" rx="6" stroke="#30363d" stroke-width="1"/>
  <text x="298" y="445" font-size="9" fill="#8b949e" text-transform="uppercase">Energy</text>
  <text x="298" y="461" font-size="18" font-weight="600" fill="#d29922">97</text>
  <rect x="428" y="426" width="134" height="42" fill="#161b22" rx="6" stroke="#30363d" stroke-width="1"/>
  <text x="438" y="445" font-size="9" fill="#8b949e" text-transform="uppercase">Vocabulary</text>
  <text x="438" y="461" font-size="18" font-weight="600" fill="#bc8cff">83</text>
  <rect x="8" y="474" width="76" height="46" fill="#161b22" rx="6" stroke="#30363d" stroke-width="1"/>
  <text x="16" y="491" font-size="9" fill="#8b949e">Alliances</text>
  <text x="16" y="513" font-size="18" font-weight="600" fill="#f0f6fc">0</text>
  <rect x="89" y="474" width="76" height="46" fill="#161b22" rx="6" stroke="#30363d" stroke-width="1"/>
  <text x="97" y="491" font-size="9" fill="#8b949e">Groups</text>
  <text x="97" y="513" font-size="18" font-weight="600" fill="#f0f6fc">0</text>
  <rect x="170" y="474" width="76" height="46" fill="#161b22" rx="6" stroke="#30363d" stroke-width="1"/>
  <text x="178" y="491" font-size="9" fill="#8b949e">Norms</text>
  <text x="178" y="513" font-size="18" font-weight="600" fill="#f0f6fc">0</text>
  <rect x="251" y="474" width="76" height="46" fill="#161b22" rx="6" stroke="#30363d" stroke-width="1"/>
  <text x="259" y="491" font-size="9" fill="#8b949e">Proposals</text>
  <text x="259" y="513" font-size="18" font-weight="600" fill="#f0f6fc">1</text>
  <rect x="332" y="474" width="76" height="46" fill="#161b22" rx="6" stroke="#30363d" stroke-width="1"/>
  <text x="340" y="491" font-size="9" fill="#8b949e">Word Life</text>
  <text x="340" y="513" font-size="18" font-weight="600" fill="#f0f6fc">19</text>
  <rect x="413" y="474" width="76" height="46" fill="#161b22" rx="6" stroke="#30363d" stroke-width="1"/>
  <text x="421" y="491" font-size="9" fill="#8b949e">Research</text>
  <text x="421" y="513" font-size="18" font-weight="600" fill="#f0f6fc">135</text>
  <rect x="494" y="474" width="76" height="46" fill="#161b22" rx="6" stroke="#30363d" stroke-width="1"/>
  <text x="502" y="491" font-size="9" fill="#8b949e">Votes</text>
  <text x="502" y="513" font-size="18" font-weight="600" fill="#f0f6fc">1</text>
  <rect x="8" y="526" width="572" height="22" fill="#161b22" rx="4" stroke="#30363d" stroke-width="1"/>
  <circle cx="20" cy="537" r="4" fill="#3fb950"/><text x="28" y="541" font-size="10" fill="#8b949e">Connected — live · 15 agents · tick 20</text>
  <rect x="592" y="34" width="300" height="200" fill="#161b22" rx="6" stroke="#30363d" stroke-width="1"/>
  <text x="602" y="53" font-size="11" fill="#8b949e" font-weight="600">💬 Live Conversations</text>
  <rect x="598" y="63" width="288" height="30" fill="#0d1117" rx="4"/>
  <text x="606" y="74" font-size="10"><tspan fill="#58a6ff" font-weight="600">A5</tspan><tspan fill="#8b949e">→</tspan><tspan fill="#3fb950" font-weight="600">A2</tspan><tspan fill="#8b949e">:</tspan></text>
  <text x="606" y="87" font-size="9" fill="#f0f6fc">I found blue crystals by the river. I call them GLA.</text>
  <rect x="598" y="97" width="288" height="30" fill="#0d1117" rx="4"/>
  <text x="606" y="108" font-size="10"><tspan fill="#58a6ff" font-weight="600">A8</tspan><tspan fill="#8b949e">→</tspan><tspan fill="#3fb950" font-weight="600">A7</tspan><tspan fill="#8b949e">:</tspan></text>
  <text x="606" y="121" font-size="9" fill="#f0f6fc">Have you seen the light that dances through the crystal</text>
  <rect x="598" y="131" width="288" height="30" fill="#0d1117" rx="4"/>
  <text x="606" y="142" font-size="10"><tspan fill="#58a6ff" font-weight="600">A3</tspan><tspan fill="#8b949e">→</tspan><tspan fill="#3fb950" font-weight="600">A1</tspan><tspan fill="#8b949e">:</tspan></text>
  <text x="606" y="155" font-size="9" fill="#f0f6fc">We should gather to discuss leadership.</text>
  <rect x="598" y="165" width="288" height="30" fill="#0d1117" rx="4"/>
  <text x="606" y="176" font-size="10"><tspan fill="#58a6ff" font-weight="600">A4</tspan><tspan fill="#8b949e">→</tspan><tspan fill="#3fb950" font-weight="600">A6</tspan><tspan fill="#8b949e">:</tspan></text>
  <text x="606" y="189" font-size="9" fill="#f0f6fc">The word 'veth' means seeking others in this world.</text>
  <rect x="592" y="240" width="300" height="120" fill="#161b22" rx="6" stroke="#30363d" stroke-width="1"/>
  <text x="602" y="259" font-size="11" fill="#8b949e" font-weight="600">📋 Active Proposals</text>
  <rect x="598" y="268" width="288" height="24" fill="#0d1117" rx="4"/>
  <text x="606" y="284" font-size="9"><tspan fill="#d29922">#1 Foundational Laws for Fairness</tspan> <tspan fill="#8b949e">[norm] for:4 against:0</tspan></text>
  <rect x="598" y="296" width="288" height="24" fill="#0d1117" rx="4"/>
  <text x="606" y="312" font-size="9"><tspan fill="#d29922">#2 First Gathering for Leadership</tspan> <tspan fill="#8b949e">[norm] for:5 against:0</tspan></text>
  <rect x="598" y="324" width="288" height="24" fill="#0d1117" rx="4"/>
  <text x="606" y="340" font-size="9"><tspan fill="#d29922">#3 Monument to Lumi</tspan> <tspan fill="#8b949e">[act] for:2 against:0</tspan></text>
  <rect x="592" y="366" width="300" height="90" fill="#161b22" rx="6" stroke="#30363d" stroke-width="1"/>
  <text x="602" y="385" font-size="11" fill="#8b949e" font-weight="600">✨ Invented Words</text>
  <rect x="602" y="402" width="50" height="18" fill="#21262d" rx="8"/>
  <text x="612" y="415" font-size="9" fill="#f0f6fc">lumi</text>
  <rect x="658" y="402" width="58" height="18" fill="#21262d" rx="8"/>
  <text x="668" y="415" font-size="9" fill="#f0f6fc">Lumis</text>
  <rect x="722" y="402" width="58" height="18" fill="#21262d" rx="8"/>
  <text x="732" y="415" font-size="9" fill="#f0f6fc">Lumin</text>
  <rect x="602" y="426" width="50" height="18" fill="#21262d" rx="8"/>
  <text x="612" y="439" font-size="9" fill="#f0f6fc">Veld</text>
  <rect x="658" y="426" width="50" height="18" fill="#21262d" rx="8"/>
  <text x="668" y="439" font-size="9" fill="#f0f6fc">suna</text>
  <rect x="714" y="426" width="42" height="18" fill="#21262d" rx="8"/>
  <text x="724" y="439" font-size="9" fill="#f0f6fc">Vex</text>
  <rect x="602" y="450" width="42" height="18" fill="#21262d" rx="8"/>
  <text x="612" y="463" font-size="9" fill="#f0f6fc">Ael</text>
  <rect x="650" y="450" width="66" height="18" fill="#21262d" rx="8"/>
  <text x="660" y="463" font-size="9" fill="#f0f6fc">Togeth</text>
  <rect x="722" y="450" width="58" height="18" fill="#21262d" rx="8"/>
  <text x="732" y="463" font-size="9" fill="#f0f6fc">Lumen</text>
  <rect x="602" y="474" width="50" height="18" fill="#21262d" rx="8"/>
  <text x="612" y="487" font-size="9" fill="#f0f6fc">veth</text>
  <text x="602" y="496" font-size="8" fill="#8b949e">(+ 2 more from other seeds)</text>
  <rect x="592" y="462" width="300" height="56" fill="#161b22" rx="6" stroke="#30363d" stroke-width="1"/>
  <text x="602" y="481" font-size="11" fill="#8b949e" font-weight="600">📚 Knowledge Topics</text>
  <text x="606" y="500" font-size="10" fill="#f0f6fc">light, unity, leadership, crystals, gathering, laws, land, purpose, connection, wisdom</text>
  <rect x="8" y="556" width="884" height="20" fill="none"/>
  <text x="12" y="570" font-size="9" fill="#8b949e">Tick 20 · 15 agents · vocab 83 · 12 words invented · 0 norms passed · 1 votes cast · 135 research findings</text>
</svg>