<svg xmlns="http://www.w3.org/2000/svg" viewBox="0 0 800 400" width="100%" max-width="800">
<rect width="800" height="400" fill="white" rx="8"/>
<line x1="60.0" y1="30" x2="60.0" y2="350" stroke="#ddd" stroke-width="0.5"/><text x="60.0" y="368" text-anchor="middle" font-size="10" fill="#666">1</text><line x1="131.0" y1="30" x2="131.0" y2="350" stroke="#ddd" stroke-width="0.5"/><text x="131.0" y="368" text-anchor="middle" font-size="10" fill="#666">3</text><line x1="202.0" y1="30" x2="202.0" y2="350" stroke="#ddd" stroke-width="0.5"/><text x="202.0" y="368" text-anchor="middle" font-size="10" fill="#666">5</text><line x1="273.0" y1="30" x2="273.0" y2="350" stroke="#ddd" stroke-width="0.5"/><text x="273.0" y="368" text-anchor="middle" font-size="10" fill="#666">7</text><line x1="344.0" y1="30" x2="344.0" y2="350" stroke="#ddd" stroke-width="0.5"/><text x="344.0" y="368" text-anchor="middle" font-size="10" fill="#666">9</text><line x1="415.0" y1="30" x2="415.0" y2="350" stroke="#ddd" stroke-width="0.5"/><text x="415.0" y="368" text-anchor="middle" font-size="10" fill="#666">11</text><line x1="486.0" y1="30" x2="486.0" y2="350" stroke="#ddd" stroke-width="0.5"/><text x="486.0" y="368" text-anchor="middle" font-size="10" fill="#666">13</text><line x1="557.0" y1="30" x2="557.0" y2="350" stroke="#ddd" stroke-width="0.5"/><text x="557.0" y="368" text-anchor="middle" font-size="10" fill="#666">15</text><line x1="628.0" y1="30" x2="628.0" y2="350" stroke="#ddd" stroke-width="0.5"/><text x="628.0" y="368" text-anchor="middle" font-size="10" fill="#666">17</text><line x1="699.0" y1="30" x2="699.0" y2="350" stroke="#ddd" stroke-width="0.5"/><text x="699.0" y="368" text-anchor="middle" font-size="10" fill="#666">19</text><line x1="60" y1="350.0" x2="55" y2="350.0" stroke="#ccc" stroke-width="0.5"/><text x="52" y="354.0" text-anchor="end" font-size="10" fill="#666">0</text><line x1="60" y1="286.0" x2="55" y2="286.0" stroke="#ccc" stroke-width="0.5"/><text x="52" y="290.0" text-anchor="end" font-size="10" fill="#666">20</text><line x1="60" y1="222.0" x2="55" y2="222.0" stroke="#ccc" stroke-width="0.5"/><text x="52" y="226.0" text-anchor="end" font-size="10" fill="#666">40</text><line x1="60" y1="158.0" x2="55" y2="158.0" stroke="#ccc" stroke-width="0.5"/><text x="52" y="162.0" text-anchor="end" font-size="10" fill="#666">60</text><line x1="60" y1="94.0" x2="55" y2="94.0" stroke="#ccc" stroke-width="0.5"/><text x="52" y="98.0" text-anchor="end" font-size="10" fill="#666">80</text><line x1="60" y1="30.0" x2="55" y2="30.0" stroke="#ccc" stroke-width="0.5"/><text x="52" y="34.0" text-anchor="end" font-size="10" fill="#666">100</text><text x="400" y="395" text-anchor="middle" font-size="12" fill="#333">Tick</text><text x="12" y="190" text-anchor="middle" font-size="12" fill="#333" transform="rotate(-90,12,190)">Vocabulary Size</text>
<polyline points="60.0,340.4 95.5,330.8 131.0,273.2 166.5,254.0 202.0,234.8 237.5,231.6 273.0,228.4 308.5,212.4 344.0,177.2 379.5,167.6 415.0,161.2 450.5,151.6 486.0,145.2 521.5,142.0 557.0,132.4 592.5,103.6 628.0,97.2 663.5,90.8 699.0,90.8 734.5,84.4" fill="none" stroke="#4a9eff" stroke-width="2" stroke-dasharray="" opacity="0.8"/>
<text x="734.5" y="84.4" fill="#4a9eff" font-size="9" transform="translate(4,3)">B1</text>
<polyline points="60.0,334.0 95.5,257.2 131.0,215.6 166.5,199.6 202.0,183.6 237.5,174.0 273.0,158.0 308.5,145.2 344.0,138.8 379.5,129.2 415.0,97.2 450.5,97.2 486.0,97.2 521.5,84.4 557.0,84.4 592.5,71.6 628.0,65.2 663.5,55.6 699.0,49.2 734.5,49.2" fill="none" stroke="#6ab0ff" stroke-width="2" stroke-dasharray="5,3,1,3" opacity="0.8"/>
<text x="734.5" y="49.2" fill="#6ab0ff" font-size="9" transform="translate(4,3)">B2</text>
<polyline points="60.0,305.2 95.5,279.6 131.0,263.6 166.5,247.6 202.0,241.2 237.5,225.2 273.0,212.4 308.5,202.8 344.0,193.2 379.5,180.4 415.0,164.4 450.5,161.2 486.0,154.8 521.5,142.0 557.0,142.0 592.5,142.0 628.0,129.2 663.5,97.2 699.0,94.0 734.5,87.6" fill="none" stroke="#3b8ae6" stroke-width="2" stroke-dasharray="2,2" opacity="0.8"/>
<text x="734.5" y="87.6" fill="#3b8ae6" font-size="9" transform="translate(4,3)">B3</text>
<polyline points="60.0,340.4 95.5,330.8 131.0,266.8 166.5,254.0 202.0,247.6 237.5,247.6 273.0,190.0 308.5,180.4 344.0,180.4 379.5,164.4 415.0,154.8 450.5,142.0 486.0,142.0 521.5,132.4 557.0,119.6 592.5,110.0 628.0,106.8 663.5,97.2 699.0,97.2 734.5,94.0" fill="none" stroke="#4caf50" stroke-width="2" stroke-dasharray="" opacity="0.8"/>
<text x="734.5" y="94.0" fill="#4caf50" font-size="9" transform="translate(4,3)">V1</text>
<polyline points="60.0,308.4 95.5,254.0 131.0,225.2 166.5,212.4 202.0,193.2 237.5,183.6 273.0,174.0 308.5,164.4 344.0,164.4 379.5,164.4 415.0,158.0 450.5,154.8 486.0,151.6 521.5,151.6 557.0,138.8 592.5,132.4 628.0,132.4 663.5,126.0 699.0,126.0 734.5,126.0" fill="none" stroke="#66bb6a" stroke-width="2" stroke-dasharray="5,3,1,3" opacity="0.8"/>
<text x="734.5" y="126.0" fill="#66bb6a" font-size="9" transform="translate(4,3)">V2</text>
<polyline points="60.0,305.2 95.5,282.8 131.0,266.8 166.5,234.8 202.0,228.4 237.5,215.6 273.0,199.6 308.5,196.4 344.0,180.4 379.5,142.0 415.0,132.4 450.5,122.8 486.0,119.6 521.5,113.2 557.0,113.2 592.5,110.0 628.0,103.6 663.5,94.0 699.0,81.2 734.5,78.0" fill="none" stroke="#388e3c" stroke-width="2" stroke-dasharray="2,2" opacity="0.8"/>
<text x="734.5" y="78.0" fill="#388e3c" font-size="9" transform="translate(4,3)">V3</text>
<rect x="640" y="35" width="150" height="55" fill="white" stroke="#ccc" rx="4"/><line x1="650" y1="45" x2="680" y2="45" stroke="#4a9eff" stroke-width="2"/><text x="685" y="49" font-size="9" fill="#333">Baseline (B1-B3)</text><line x1="650" y1="62" x2="680" y2="62" stroke="#4caf50" stroke-width="2"/><text x="685" y="66" font-size="9" fill="#333">Voting (V1-V3)</text><line x1="650" y1="78" x2="680" y2="78" stroke="#999" stroke-width="2" stroke-dasharray="2,2"/><text x="685" y="82" font-size="9" fill="#666">dashed = seed 2/3</text>
</svg>